<svg width="92" height="13" viewBox="0 0 92 13" fill="none" xmlns="http://www.w3.org/2000/svg">
<path d="M0.28 12V0.639999H4.312C5.53867 0.639999 6.56267 0.895999 7.384 1.408C8.20533 1.90933 8.81867 2.592 9.224 3.456C9.64 4.30933 9.848 5.25867 9.848 6.304C9.848 7.456 9.61867 8.45867 9.16 9.312C8.712 10.1653 8.072 10.8267 7.24 11.296C6.408 11.7653 5.432 12 4.312 12H0.28ZM8.024 6.304C8.024 5.504 7.87467 4.8 7.576 4.192C7.288 3.57333 6.86667 3.09333 6.312 2.752C5.768 2.4 5.10133 2.224 4.312 2.224H2.072V10.416H4.312C5.112 10.416 5.784 10.2347 6.328 9.872C6.88267 9.50933 7.304 9.01867 7.592 8.4C7.88 7.78133 8.024 7.08267 8.024 6.304ZM19.5251 10.416V12H11.7331V0.639999H19.3811V2.224H13.5251V5.456H18.5971V6.944H13.5251V10.416H19.5251ZM22.0938 0.639999L25.5178 9.808L28.9258 0.639999H30.8298L26.3658 12H24.6698L20.1898 0.639999H22.0938ZM40.0095 10.416V12H32.2175V0.639999H39.8655V2.224H34.0095V5.456H39.0815V6.944H34.0095V10.416H40.0095ZM41.8581 12V0.639999H43.6501V10.416H49.7461V12H41.8581ZM55.6094 12.08C54.788 12.08 54.0467 11.92 53.3854 11.6C52.724 11.28 52.1534 10.848 51.6734 10.304C51.1934 9.74933 50.82 9.13067 50.5534 8.448C50.2974 7.75467 50.1694 7.04533 50.1694 6.32C50.1694 5.56267 50.308 4.84267 50.5854 4.16C50.8627 3.46667 51.2467 2.85333 51.7374 2.32C52.228 1.776 52.804 1.34933 53.4654 1.04C54.1374 0.719999 54.8627 0.559999 55.6414 0.559999C56.452 0.559999 57.188 0.725333 57.8494 1.056C58.5214 1.38667 59.092 1.82933 59.5614 2.384C60.0414 2.93867 60.4094 3.55733 60.6654 4.24C60.932 4.92267 61.0654 5.62133 61.0654 6.336C61.0654 7.09333 60.9267 7.81867 60.6494 8.512C60.3827 9.19467 60.004 9.808 59.5134 10.352C59.0227 10.8853 58.4414 11.3067 57.7694 11.616C57.108 11.9253 56.388 12.08 55.6094 12.08ZM51.9934 6.32C51.9934 6.85333 52.0787 7.37067 52.2494 7.872C52.42 8.37333 52.66 8.82133 52.9694 9.216C53.2894 9.6 53.6734 9.904 54.1214 10.128C54.5694 10.352 55.0707 10.464 55.6254 10.464C56.2014 10.464 56.7134 10.3467 57.1614 10.112C57.6094 9.87733 57.9827 9.56267 58.2814 9.168C58.5907 8.76267 58.8254 8.31467 58.9854 7.824C59.1454 7.32267 59.2254 6.82133 59.2254 6.32C59.2254 5.78667 59.14 5.27467 58.9694 4.784C58.8094 4.28267 58.5694 3.84 58.2494 3.456C57.9294 3.06133 57.5454 2.752 57.0974 2.528C56.66 2.304 56.1694 2.192 55.6254 2.192C55.0494 2.192 54.5374 2.30933 54.0894 2.544C53.6414 2.77867 53.2627 3.09333 52.9534 3.488C52.644 3.88267 52.404 4.32533 52.2334 4.816C52.0734 5.30667 51.9934 5.808 51.9934 6.32ZM62.9206 12V0.639999H67.6886C68.2006 0.639999 68.67 0.746666 69.0966 0.959999C69.5233 1.17333 69.8966 1.456 70.2166 1.808C70.5366 2.16 70.782 2.55467 70.9526 2.992C71.1233 3.42933 71.2086 3.87733 71.2086 4.336C71.2086 4.96533 71.0646 5.568 70.7766 6.144C70.4993 6.70933 70.0993 7.168 69.5766 7.52C69.0646 7.872 68.4673 8.048 67.7846 8.048H64.7126V12H62.9206ZM64.7126 6.464H67.6726C68.014 6.464 68.3126 6.37333 68.5686 6.192C68.8246 6 69.022 5.744 69.1606 5.424C69.31 5.104 69.3846 4.74133 69.3846 4.336C69.3846 3.92 69.2993 3.552 69.1286 3.232C68.958 2.912 68.734 2.66667 68.4566 2.496C68.19 2.31467 67.8966 2.224 67.5766 2.224H64.7126V6.464ZM80.6814 10.416V12H72.8894V0.639999H80.5374V2.224H74.6814V5.456H79.7534V6.944H74.6814V10.416H80.6814ZM82.53 12V0.639999H87.474C87.986 0.639999 88.4553 0.746666 88.882 0.959999C89.3087 1.17333 89.6767 1.456 89.986 1.808C90.306 2.16 90.5513 2.55467 90.722 2.992C90.9033 3.42933 90.994 3.87733 90.994 4.336C90.994 4.83733 90.9033 5.31733 90.722 5.776C90.5407 6.23467 90.2793 6.62933 89.938 6.96C89.6073 7.29067 89.218 7.53067 88.77 7.68L91.442 12H89.426L86.962 8.048H84.322V12H82.53ZM84.322 6.464H87.458C87.7887 6.464 88.082 6.368 88.338 6.176C88.594 5.984 88.7967 5.728 88.946 5.408C89.0953 5.07733 89.17 4.72 89.17 4.336C89.17 3.94133 89.0847 3.58933 88.914 3.28C88.7433 2.96 88.5193 2.704 88.242 2.512C87.9753 2.32 87.682 2.224 87.362 2.224H84.322V6.464Z" fill="black"/>
</svg>
